<svg xmlns="http://www.w3.org/2000/svg" viewBox="0 0 60 60" fill="none" role="img" aria-labelledby="bespoke-logo-icon-title">
  <title id="bespoke-logo-icon-title">Bespoke Academy - Icon</title>
  <defs>
    <linearGradient id="g" x1="0%" y1="0%" x2="100%" y2="100%">
      <stop offset="0%" style="stop-color:#0080FF"/>
      <stop offset="100%" style="stop-color:#10b981"/>
    </linearGradient>
  </defs>

  <circle cx="30" cy="30" r="24" fill="url(#g)"/>
  <g transform="translate(30,30)">
    <circle cx="0" cy="0" r="3" fill="#fff" opacity=".9"/>
    <circle cx="-8" cy="-8" r="2" fill="#fff" opacity=".7"/>
    <circle cx="8" cy="-8" r="2" fill="#fff" opacity=".7"/>
    <circle cx="-8" cy="8" r="2" fill="#fff" opacity=".7"/>
    <circle cx="8" cy="8" r="2" fill="#fff" opacity=".7"/>
    <circle cx="0" cy="-10" r="1.8" fill="#fff" opacity=".8"/>
    <circle cx="10" cy="0" r="1.8" fill="#fff" opacity=".8"/>
    <circle cx="0" cy="10" r="1.8" fill="#fff" opacity=".8"/>
    <circle cx="-10" cy="0" r="1.8" fill="#fff" opacity=".8"/>
    <line x1="0" y1="0" x2="-8" y2="-8" stroke="#fff" stroke-width="1" opacity=".4"/>
    <line x1="0" y1="0" x2="8" y2="-8" stroke="#fff" stroke-width="1" opacity=".4"/>
    <line x1="0" y1="0" x2="-8" y2="8" stroke="#fff" stroke-width="1" opacity=".4"/>
    <line x1="0" y1="0" x2="8" y2="8" stroke="#fff" stroke-width="1" opacity=".4"/>
    <line x1="0" y1="0" x2="0" y2="-10" stroke="#fff" stroke-width="1.5" opacity=".5"/>
    <line x1="0" y1="0" x2="10" y2="0" stroke="#fff" stroke-width="1.5" opacity=".5"/>
    <line x1="0" y1="0" x2="0" y2="10" stroke="#fff" stroke-width="1.5" opacity=".5"/>
    <line x1="0" y1="0" x2="-10" y2="0" stroke="#fff" stroke-width="1.5" opacity=".5"/>
    <line x1="-8" y1="-8" x2="0" y2="-10" stroke="#fff" stroke-width=".8" opacity=".3"/>
    <line x1="8" y1="-8" x2="0" y2="-10" stroke="#fff" stroke-width=".8" opacity=".3"/>
    <line x1="-8" y1="8" x2="0" y2="10" stroke="#fff" stroke-width=".8" opacity=".3"/>
    <line x1="8" y1="8" x2="0" y2="10" stroke="#fff" stroke-width=".8" opacity=".3"/>
    <circle cx="-12" cy="-12" r="1" fill="#fff" opacity=".6"/>
    <circle cx="12" cy="-12" r="1" fill="#fff" opacity=".6"/>
    <circle cx="-12" cy="12" r="1" fill="#fff" opacity=".6"/>
    <circle cx="12" cy="12" r="1" fill="#fff" opacity=".6"/>
  </g>
</svg>